<svg xmlns="http://www.w3.org/2000/svg" width="200mm" height="200mm" viewBox="0 0 200 200"><path d="m83 215 21 36c1 1 0 2-1 2H79v9h25c7 0 12-7 8-13l-20-36v-32c5 0 5-7 0-7h-9zM67 215l-20 36c-1 1-1 2 1 2h23v9H47c-7 0-12-7-9-13l21-36v-32c-5 0-5-7 0-7h8z" style="fill:#000;fill-opacity:1;stroke:none;stroke-width:.26458332px;stroke-linecap:butt;stroke-linejoin:miter;stroke-opacity:1" transform="translate(214 -182)"/><path style="fill:#000;fill-opacity:1;stroke:none;stroke-width:4.4000001;stroke-miterlimit:4;stroke-dasharray:none;stroke-opacity:1" d="M72 253h7v9h-7z" transform="translate(214 -182)"/><path style="fill:#000;fill-opacity:1;stroke:none;stroke-width:8.28641224;stroke-miterlimit:4;stroke-dasharray:none;stroke-opacity:1" d="M59 174h33v7H59z" transform="translate(214 -182)"/><g><g transform="translate(25 -245) scale(1.30841)"><path transform="matrix(.26458 0 0 .26458 -15 145)" d="M295 517c-21 0-23 29-65 13l-76 130c-3 7-1 11 5 11h233c6 0 7-4 4-11l-79-136c-9-5-16-7-22-7zm-46 34a22 22 0 0 1 22 22 22 22 0 0 1-22 22 22 22 0 0 1-22-22 22 22 0 0 1 22-22zm59 35a33 33 0 0 1 33 33 33 33 0 0 1-33 34 33 33 0 0 1-34-34 33 33 0 0 1 34-33zm-87 27a15 15 0 0 1 15 15 15 15 0 0 1-15 15 15 15 0 0 1-15-15 15 15 0 0 1 15-15z" style="fill:#25c2a0;fill-opacity:1;stroke:none;stroke-width:1.11526883px;stroke-linecap:butt;stroke-linejoin:miter;stroke-opacity:1"/><path d="M41 241c-5 0-5 7 0 7v32l-21 36c-3 6 2 13 9 13h57c7 0 12-7 8-13l-20-36v-32c5 0 5-7 0-7zm8 7h16v34l21 36c1 1 0 2-1 2H30c-2 0-2-1-1-2l20-36z" style="fill:#666;fill-opacity:1;stroke:none;stroke-width:.26458332px;stroke-linecap:butt;stroke-linejoin:miter;stroke-opacity:1"/><circle r="8.8" cy="207.8" cx="69.1" style="fill:#25c2a0;fill-opacity:1;stroke:none;stroke-width:4.4000001;stroke-miterlimit:4;stroke-dasharray:none;stroke-opacity:1"/><circle r="5.8" cy="219.1" cx="51.4" style="fill:#25c2a0;fill-opacity:1;stroke:none;stroke-width:4.4000001;stroke-miterlimit:4;stroke-dasharray:none;stroke-opacity:1"/><circle r="3.9" cy="231.1" cx="62.8" style="fill:#25c2a0;fill-opacity:1;stroke:none;stroke-width:4.4000001;stroke-miterlimit:4;stroke-dasharray:none;stroke-opacity:1"/></g><path style="fill:#00f;fill-opacity:1;stroke:none;stroke-width:.29508156px;stroke-linecap:butt;stroke-linejoin:miter;stroke-opacity:1" d="m140 100-20 34c0 2 0 3 2 3h61c2 0 2-1 1-3l-21-36c-11-6-9 7-23 2z" transform="translate(15 -145)"/></g></svg>