<?xml version="1.0" encoding="UTF-8"?>
<svg version="1.1" viewBox="0 0 643.35753 355.04459" xmlns="http://www.w3.org/2000/svg">
 <defs>
  <filter id="b" color-interpolation-filters="sRGB">
   <feGaussianBlur stdDeviation="2.46928"/>
  </filter>
  <filter id="a" x="-.1005" y="-.03328" width="1.201" height="1.0666" color-interpolation-filters="sRGB">
   <feGaussianBlur stdDeviation="1.17212"/>
  </filter>
  <linearGradient id="d" x1="860.01" x2="811.98" y1="346.86" y2="374.29" gradientUnits="userSpaceOnUse">
   <stop stop-color="#acf" offset="0"/>
   <stop stop-color="#acf" stop-opacity="0" offset="1"/>
  </linearGradient>
  <filter id="g" color-interpolation-filters="sRGB">
   <feGaussianBlur stdDeviation="2.09805"/>
  </filter>
  <filter id="e" color-interpolation-filters="sRGB">
   <feGaussianBlur stdDeviation="2.29766"/>
  </filter>
  <filter id="f" x="-.03053" y="-.138" width="1.0611" height="1.276" color-interpolation-filters="sRGB">
   <feGaussianBlur stdDeviation="3.1414"/>
  </filter>
  <linearGradient id="c" x1="409.72" x2="233.82" y1="48.929" y2="54.902" gradientTransform="translate(-53.156 -12.365)" gradientUnits="userSpaceOnUse">
   <stop stop-color="#ff6669" offset="0"/>
   <stop stop-color="#80090d" offset="1"/>
  </linearGradient>
 </defs>
 <path d="m14.716 106.36c19.582 12.631 40.462 23.052 62.371 29.118 18.109 5.0136 10.344-0.21811 21.919-2.8293 9.6463-2.1761 18.404-6.7382 28.79-8.2521 30.977-4.5154 63.968 1.9258 95.323 0.23577 18.809-1.0138 26.522-9.3969 41.565-17.624 18.424-10.077 41.038-4.7677 60.387-11.789 24.233-8.7932 45.297-16.085 70.403-20.218 24.058-3.9604 47.528-13.44 71.613-15.856 21.62-2.1689 43.328 6.8964 65.177 6.8964 22.304 0 41.078-4.3033 63.532-0.88416 11.021 1.6781 23.777 1.9345 34.5 0.41261 4.4338-0.62927 10.416 16.995 11.468 20.218 6.0762 18.624-7.043 44.964-9 62.952-2.5082 23.055-1.7395 46.123-2.8064 69.259-1.0246 22.217-0.1102 39.654 2.0806 61.361 1.605 15.902 3.3218 32.05 6.8226 47.509 3.5447 15.653 3.8502 15.35-9.9194 21.691-24.498 11.282-62.31 2.2399-88.016 2.2399-38.362 0-76.761 1.4146-115.06 1.4146-30.858 0-61.698 1.8862-92.564 1.8862-25.319 0-50.58 0.94311-75.919 0.94311-33.08 0-66.324-6.3659-99.581-6.3659-27.117 0-54.016 1.5325-81.097 1.5325-17.631 0-36.735 1.0276-54.242-1.5915-14.836-2.21-17.298 2.82-21.473-15.55-3.9389-17.34 5.0789-52.41 9.097-69.08 5.7045-23.678-8.5827-49.317-9.2903-73.798-0.50431-17.447 1.3419-34.516 3.9677-51.576 1.2393-8.0515 2.8806-16.015 4.1613-24.108 0.68797-4.3475 2.8021-5.5637 5.8065-8.1343z" fill="#e3b88f" fill-rule="evenodd"/>
 <path d="m347.88 184.11c17.253-55.657 20.589-79.816 29.382-134.37 0.18258-1.1328-10.683-7.5411 0.671 0.29298 11.567-12.447 8.2718-27.934 6.8431-28.806-27.71-16.904-64.97-24.03-109.04-20.217-44.07 3.8127-82.71 13.505-116.3 40.425-5.8241 4.6677-9.9014 15.352 8.6638 20.362-4.5276-3.5889 56.588 109.05 72.007 135.98 16.877 3.3304 30.268 6.3853 57.207 3.6517 26.606-2.6999 32.698-6.913 50.559-17.313z" fill="#c83737" fill-rule="evenodd"/>
 <path d="m167.33 43.556c-0.54733-3.656 20.36-13.668 58.973-30.697 37.542-7.9063 30.067-6.0317 58.914-9.1905 29.432 0.66234 22.63-2.1812 47.524 2.1815 15.617 3.2197 26.902 6.4192 39.312 12.752 10.158 4.8902 8.4181 23.34-1.6355 28.441-12.78 11.768-26.116 18.521-41.793 25.76-7.9922 4.2258-34.974 9.2884-44.012 8.4825-22.98 0.80114-38.168 1.3472-60.397-6.8416-23.512-7.2852-56.048-25.299-56.885-30.889z" fill="url(#c)" fill-rule="evenodd"/>
 <path d="m171.57 62.844c2.2529-0.16114 4.6634 1.6312 6.7439 2.9627 2.707 1.7325 5.5249 2.5928 8.654 3.5474 4.0929 1.2487 8.383 3.1338 11.928 5.2432 1.535 0.91323 3.2745 2.5854 5.3015 3.5669 3.6819 1.7828 7.5777 4.0628 11.578 5.0872 1.2087 0.30955 2.7326 1.0603 4.0736 1.4813 4.5441 1.4267 9.3758 1.5762 13.936 2.6898 4.6456 1.1344 9.7131 1.0658 14.462 1.9686 5.5004 1.0455 11.341 1.362 16.918 1.5983 3.2301 0.13687 6.9338 0.0986 9.9794-0.33135 4.9996-0.70583 10.062-0.38345 15.066-1.15 4.4223-0.67729 9.4952-1.9038 14.423-2.3195 3.5237-0.29718 6.0262 0.50614 8.1862-2.0466 1.8774-2.2188 9.5101-2.2093 12.318-2.9627 3.0331-0.81377 6.461-3.3783 9.0828-5.1262 2.5783-1.7189 5.8252-2.999 8.615-4.366 2.6962-1.3212 5.4216-2.5207 8.0887-3.8983 2.9368-1.5168 5.9668-3.0097 8.7904-4.6974 2.9629-1.771 5.4803-4.5184 8.4006-6.4126 1.6338-1.0598 3.5327-1.8807 5.2041-2.8652 1.4913-0.87843 2.9519-2.3885 3.9762-3.6254 0.2655-0.32061-0.46779 0.68869-0.70168 1.033-0.51957 0.76494-1.1014 1.9698-1.5593 2.9237-0.76299 1.5896-0.83584 1.9549-2.4364 3.0796-2.2681 1.5938-4.5965 3.2317-6.8413 4.8923-2.939 2.1741-5.7955 4.3382-8.8099 6.4126-2.8583 1.967-5.662 3.9554-8.5955 5.8279l-1.7932 1.1305c-3.4617 2.1824-6.0869 4.2584-10.096 5.3211-3.5713 0.94663-6.1581 3.3448-9.5506 4.7754-4.2098 1.7753-8.7114 3.1386-13.059 4.522-2.6984 0.85861-4.6471 2.5454-7.4845 2.9237-6.5085 0.86781-13.414 0.79854-19.939 0.0975-1.9525-0.20977-3.893 0.19744-5.6134 0.87711-7.1204 2.813-17.993 1.2748-25.475 0.81863-4.3049-0.26249-8.5445-0.21848-12.825-0.6627-6.9794-0.72428-14.265-1.5881-20.953-3.7618-4.2986-1.3971-8.3876-2.8134-12.377-4.8533-5.5042-2.8147-11.992-3.8603-17.678-6.4516-1.0358-0.47204-0.59054-0.51928-1.1305-0.99406-3.4266-1.5615-6.6277-3.5911-9.726-5.7304-1.5906-1.0983-2.9188-2.6075-4.6778-3.6059-2.0421-1.1591-3.3304-2.5605-3.6058-4.7364-0.217-1.7143 0.39958-5.9933-0.79913-2.183z" fill="#910003" fill-rule="evenodd" filter="url(#f)"/>
 <path d="m365.18 78.293c1.8168 0-4.6486 7.6051-5.2492 17.615-0.54971 9.162-6.8888 20.73-9.5472 29.734-1.9404 6.5726-3.8374 13.24-6.447 19.518-3.1489 7.5745-6.7982 14.105-11.591 20.715-3.2399 4.4689-5.5599 9.2739-9.6529 13.07-4.9743 4.6139-8.9615 10.211-14.268 14.444-4.8609 3.8778-3.6084 3.7799 1.5149 2.607 5.6852-1.3015 11.209-3.2139 16.628-5.4959 4.099-1.7259 8.8339-3.1168 13.105-4.2629 3.1932-0.85673 4.7802-1.4434 6.5879-3.5582 1.6918-1.9791 2.0995-8.4791 3.0298-11.098 2.6768-7.535 3.7615-14.684 5.0378-22.512 1.2339-7.568 5.0451-14.743 6.8346-22.089 1.7768-7.2946 4.4305-14.327 6.6232-21.49 1.8267-5.9673 1.1874-9.8022 0.31706-15.677-0.52088-3.516 1.4807-8.1551 1.2683-11.732-0.0235-0.39546-0.1644-0.77507-0.24661-1.1626" fill="#a91819" fill-rule="evenodd" filter="url(#e)"/>
 <path d="m206.65 172.61c0 7.6486 15.593-3.0489 22.929-0.88416 10.456 3.0856 14.933 5.5506 19.923 15.031 6.3825 12.127 18.046 14.028 30.709 17.447 10.138 2.7372-2.4192 7.9092-6.4248 8.6058-10.774 1.8739-22.15 0.0129-33.126 0.9431-16.12 1.3661-19.577-25.954-23.341-35.366-1.8887-4.7219-13.303-6.6972-16.74-7.8985-2.0237-0.70732 4.0794 1.3291 6.0711 2.122z" fill="#d38d5f" fill-rule="evenodd"/>
 <path d="m411.77 182.22 6.4837-0.23577c9.8106-0.35675 21.469 2.6386 31.004 4.8923 9.3616 2.2128 13.854 7.1819 20.571 13.498 5.5624 5.2304 22.787 6.1327 6.6606 4.244-15.485-1.8136-30.932-0.60665-47.036-3.2419-10.587-1.7324-18.241 0.15493-26.171 6.0123-1.4056 1.0382 3.5217-15.988 4.185-17.978 0.88333-2.65 2.8686-4.7941 4.3028-7.1912" fill="#d38d5f" fill-rule="evenodd"/>
 <path d="m554.83 236.1c7.1125-2.5139 9.2856 12.058 15.124 16.836 11.969 9.7946 17.606 4.2819 11.462 13.188-1.7503 2.5369-42.715-6.4792-47.875-7.474-22.498-4.3376 2.9794-15.684 8.6775-17.064 3.795-0.91917 23.416-11.475 12.612-5.4856z" fill="#d38d5f" fill-rule="evenodd"/>
 <path d="m264.42 257.08c12.76-7.3368 36.748-11.068 55.465-12.437 2.0621-0.15089 4.126-0.27507 6.189-0.41261 20.974-1.3983 0.27768-0.49152-15.915 9.3131-12.569 7.6108-44.797 4.9608-50.927-4.3029-0.14747-0.22287-0.43225-0.31437-0.64838-0.47155" fill="#d38d5f" fill-rule="evenodd"/>
 <path d="m119.42 321.98c-4.463-1.1406 32.303-7.7433 62.597-2.063 12.734 2.3876 68.294 13.383 34.482-14.795-1.1878-0.98987-26.576 7.8534-31.77 7.368-15.932-1.489-40.429-5.5939-54.64 0-4.8356 1.9034-22.904 15.171-10.669 9.49z" fill="#d38d5f" fill-rule="evenodd"/>
 <path d="m224.4 183.99c-8.7889-0.16179-18.892 18.7-28.469 26.466-7.1157 5.7696 5.1911-3.9999 6.248-5.1871 3.9562-4.4441 9.0453 7.7509 13.852 11.258 2.7413 2.0005 18.018-8.0252 23.459-8.9595l1.8272-0.29472c4.7778-0.77063-8.274-9.8615-9.1951-10.61-6.1854-5.0257-11.915-5.7114-7.7215-12.673z" fill="#d38d5f" fill-rule="evenodd"/>
 <g transform="matrix(.50668 .86213 -.86213 .50668 125.86 -665.61)" fill-rule="evenodd">
  <path d="m846.72 45.326c-6.2518-0.95752-14.281 7.0285-15.948 13.469l-14.481 55.964c-1.6666 6.4408 1.7756 16.184 8.0274 17.141l31.524 4.8282-48.537 187.58-33.306-5.101c-13.578-2.0796-27.435 7.5165-31.055 21.505l-14.126 54.595c-3.6195 13.988 4.413 26.905 17.991 28.984l96.324 14.753c13.578 2.0796 27.427-7.4854 31.047-21.474l14.126-54.595c3.6195-13.988-4.405-26.936-17.983-29.015l-33.849-5.1843 48.537-187.58 33.457 5.1242c6.2518 0.95751 12.892-7.2413 14.559-13.682l14.481-55.964c1.6665-6.4408-0.38656-15.971-6.6384-16.929l-94.14-14.421zm10.015 22.686 61.871 9.476c8.083 1.238 8.8859 3.2867 6.7312 11.614l-6.3453 22.947c-2.1547 8.3273-3.3085 8.9273-11.391 7.6894l-59.08-8.7784c-8.083-1.238-9.5197-0.90328-7.365-9.2306l6.8743-23.656c2.1547-8.3273 0.62258-11.3 8.7056-10.062z" fill="#2a7fff" opacity=".99"/>
  <path transform="matrix(.95208 .30586 -.25329 .96739 244.44 -5.848)" d="m654.5-56.985a4.1273 4.5364 0 0 1 4.1273 4.5364v187.94a4.1273 4.5364 0 0 1 -4.1273 4.5364 4.1273 4.5364 0 0 1 -4.1273 -4.5364v-187.94a4.1273 4.5364 0 0 1 4.1273 -4.5364" fill="#04a" filter="url(#b)" opacity=".99"/>
  <path transform="matrix(.95208 .30586 -.25329 .96739 222.47 -8.772)" d="m654.5-56.985a4.1273 4.5364 0 0 1 4.1273 4.5364v187.94a4.1273 4.5364 0 0 1 -4.1273 4.5364 4.1273 4.5364 0 0 1 -4.1273 -4.5364v-187.94a4.1273 4.5364 0 0 1 4.1273 -4.5364" fill="#80b3ff" filter="url(#b)" opacity=".99"/>
  <path d="m943.34 67.295c-2.6065-0.71236-2.9043 0.17518-4.017 3.0683-2.082 5.4132-2.9197 11.992-4.8648 17.703-1.8354 5.3891-2.518 10.994-4.2794 16.432-1.4846 4.583-2.3276 9.3944-3.0077 14.11-0.46978 3.2572-2.1118 7.01-3.0279 10.255-0.48394 1.714-0.61727 3.4296-1.09 5.1273-0.29746 1.0682-0.77801 1.6678-0.98911 2.7655-0.1713 0.89078 2.1158 0.72624 2.4627 0.74689 2.0178 0.12011 2.891-4.2222 3.3508-5.4906 0.93364-2.5756 2.3317-4.9866 3.3307-7.5294 1.635-4.162 3.1706-8.282 4.1381-12.657 0.87442-3.954 1.2328-7.7762 2.5232-11.647 1.0738-3.2216 2.1431-6.4125 2.9673-9.7095 0.86895-3.4759 2.0476-6.6782 2.6645-10.234 0.43266-2.4942 1.2923-4.8732 1.6956-7.3881 0.25466-1.588 0.18537-2.3293-0.20186-3.9363-0.31087-1.2901 1.872 1.0521-1.6552-1.6149z" fill="#0055d4" filter="url(#a)"/>
  <path transform="matrix(.99662 -.082132 .060315 .73188 240.53 63.733)" d="m604.77 60.72c-2.6065-0.71236-2.9043 0.17518-4.017 3.0683-2.082 5.4132-2.9197 11.992-4.8648 17.703-1.8354 5.3891-2.518 10.994-4.2794 16.432-1.4846 4.583-2.3276 9.3944-3.0077 14.11-0.46978 3.2572-2.1118 7.01-3.0279 10.255-0.48394 1.714-0.61727 3.4296-1.09 5.1273-0.29746 1.0682-0.77801 1.6678-0.98911 2.7655-0.1713 0.89078 2.1158 0.72624 2.4627 0.74689 2.0178 0.12011 2.891-4.2222 3.3508-5.4906 0.93364-2.5756 2.3317-4.9866 3.3307-7.5294 1.635-4.162 3.1706-8.282 4.1381-12.657 0.87442-3.954 1.2328-7.7762 2.5232-11.647 1.0738-3.2216 2.1431-6.4125 2.9673-9.7095 0.86895-3.4759 2.0476-6.6782 2.6645-10.234 0.43266-2.4942 1.2923-4.8732 1.6956-7.3881 0.25466-1.588 0.18537-2.3293-0.20186-3.9363-0.31087-1.2901 1.872 1.0521-1.6552-1.6149z" fill="#0055d4" filter="url(#a)"/>
  <path d="m838.96 51.52c-2.6065-0.71236-2.9043 0.17518-4.017 3.0683-2.082 5.4132-2.9197 11.992-4.8648 17.703-1.8354 5.3891-2.518 10.994-4.2794 16.432-1.4846 4.583-2.3276 9.3944-3.0077 14.11-0.46978 3.2572-2.1118 7.0099-3.0279 10.255-0.48394 1.714-0.61727 3.4296-1.09 5.1273-0.29746 1.0682-0.77801 1.6678-0.98911 2.7655-0.1713 0.89078 2.1158 0.72624 2.4627 0.74689 2.0178 0.12011 2.891-4.2222 3.3508-5.4906 0.93364-2.5756 2.3317-4.9866 3.3307-7.5294 1.635-4.162 3.1706-8.282 4.1381-12.657 0.87442-3.954 1.2328-7.7762 2.5232-11.647 1.0738-3.2216 2.1431-6.4125 2.9673-9.7095 0.86895-3.4759 2.0476-6.6782 2.6645-10.234 0.43266-2.4942 1.2923-4.8732 1.6956-7.3881 0.25466-1.588 0.18537-2.3293-0.20186-3.9363-0.31087-1.2901 1.872 1.0521-1.6552-1.6149z" fill="#80b3ff" filter="url(#a)"/>
  <path d="m778.77 332.44c12.038 0.66412 27.182 4.1981 40.255 6.2732 15.373 2.4401 31.798 5.128 46.782 9.4734 2.9254 0.84836 3.7091-0.38622 5.2826 2.4382 1.8598 3.3381 0.29775 12.675-0.48255 16.305-1.5433 7.1799-1.6209 14.56-3.2508 21.766-1.2132 5.3636-3.041 10.661-5.8414 15.416-2.446 4.1536-5.9542 3.2211-10.235 1.6254-7.1349-2.6594-13.778-8.1431-20.445-11.886-5.6456-3.1695-11.61-7.1752-16.711-11.15-6.9771-5.4357-13.861-11.639-20.013-18.032-4.5625-4.7415-9.3932-12.236-12.47-18.032-2.2286-4.1982-2.3114-6.6245-2.0318-11.378 0.0576-0.97867-0.55874-1.8794-0.83811-2.8191z" fill="url(#d)" filter="url(#g)"/>
 </g>
</svg>
