<svg xmlns="http://www.w3.org/2000/svg" width="200mm" height="200mm" viewBox="0 0 200 200"><g transform="translate(0 -97)"><rect style="fill:#666;fill-opacity:1;stroke:none;stroke-width:4.08895302;stroke-miterlimit:4;stroke-dasharray:none;stroke-opacity:1" width="30" height="6" x="80" y="231.5" ry="3"/><rect style="fill:#666;fill-opacity:1;stroke:none;stroke-width:3.95030379;stroke-miterlimit:4;stroke-dasharray:none;stroke-opacity:1" width="28" height="6" x="81" y="239.1" ry="3"/><rect style="fill:#666;fill-opacity:1;stroke:none;stroke-width:3.80660772;stroke-miterlimit:4;stroke-dasharray:none;stroke-opacity:1" width="26" height="6" x="82" y="246.7" ry="3"/><path style="fill:#25c2a0;fill-opacity:1;stroke:none;stroke-width:.26458332px;stroke-linecap:butt;stroke-linejoin:miter;stroke-opacity:1" d="M86 255h18l-4 5H90ZM95 152c-15 0-32 11-32 30 1 12 6 19 11 29s0 19 10 19h22c10 0 5-9 10-19s10-17 11-29c0-19-17-30-32-30z"/><path d="M170 174c-10 0-5-9-10-19s-10-17-11-29c0-19 16-30 32-30v78zM192 174c9 0 5-9 10-19s10-17 11-29c0-19-17-30-32-30v78z" style="fill:#ff0;fill-opacity:1;stroke:none;stroke-width:.26458332px;stroke-linecap:butt;stroke-linejoin:miter;stroke-opacity:1" transform="translate(-234 -3)"/><g transform="translate(-162 -40)"><rect ry="3" y="237.2" x="87.1" height="6" width="30" style="fill:#666;fill-opacity:1;stroke:none;stroke-width:4.08895302;stroke-miterlimit:4;stroke-dasharray:none;stroke-opacity:1"/><rect ry="3" y="243.2" x="88.1" height="6" width="28" style="fill:#666;fill-opacity:1;stroke:none;stroke-width:3.95030403;stroke-miterlimit:4;stroke-dasharray:none;stroke-opacity:1"/><rect ry="3" y="249.2" x="89.1" height="6" width="26" style="fill:#666;fill-opacity:1;stroke:none;stroke-width:3.80660796;stroke-miterlimit:4;stroke-dasharray:none;stroke-opacity:1"/></g><path style="fill:#25c2a0;fill-opacity:1;stroke:none;stroke-width:.26458332px;stroke-linecap:butt;stroke-linejoin:miter;stroke-opacity:1" d="M-57 236h18l-4 5h-10z"/><rect style="fill:#666;fill-opacity:1;stroke:none;stroke-width:4.4000001;stroke-miterlimit:4;stroke-dasharray:none;stroke-opacity:1" width="4.9" height="25.3" x="-60.8" y="276.5" ry="2.5"/><rect style="fill:#666;fill-opacity:1;stroke:none;stroke-width:3.91019177;stroke-miterlimit:4;stroke-dasharray:none;stroke-opacity:1" width="4.9" height="20" x="-51.1" y="281.8" ry="2.5"/><rect style="fill:#666;fill-opacity:1;stroke:none;stroke-width:3.38632536;stroke-miterlimit:4;stroke-dasharray:none;stroke-opacity:1" width="4.9" height="15" x="-41.9" y="286.8" ry="2.5"/><rect style="fill:#666;fill-opacity:1;stroke:none;stroke-width:4.4000001;stroke-miterlimit:4;stroke-dasharray:none;stroke-opacity:1" width="4.9" height="25.3" x="209.3" y="48.3" ry="2.5" transform="rotate(60)"/><rect style="fill:#666;fill-opacity:1;stroke:none;stroke-width:3.91019177;stroke-miterlimit:4;stroke-dasharray:none;stroke-opacity:1" width="4.9" height="20" x="193.6" y="-6.8" ry="2.5" transform="rotate(75)"/><rect style="fill:#666;fill-opacity:1;stroke:none;stroke-width:3.38632536;stroke-miterlimit:4;stroke-dasharray:none;stroke-opacity:1" width="4.9" height="15" x="59" y="-157.6" ry="2.5" transform="rotate(135)"/><rect style="fill:#666;fill-opacity:1;stroke:none;stroke-width:4.4000001;stroke-miterlimit:4;stroke-dasharray:none;stroke-opacity:1" width="4.9" height="25.3" x="146.9" y="-101.2" ry="2.5" transform="rotate(105)"/><rect style="fill:#666;fill-opacity:1;stroke:none;stroke-width:3.91019177;stroke-miterlimit:4;stroke-dasharray:none;stroke-opacity:1" width="4.9" height="20" x="42.6" y="144.6" ry="2.5" transform="rotate(-15)"/><rect style="fill:#666;fill-opacity:1;stroke:none;stroke-width:3.38632536;stroke-miterlimit:4;stroke-dasharray:none;stroke-opacity:1" width="4.9" height="15" x="135.3" y="100.1" ry="2.5" transform="rotate(15)"/><rect style="fill:#666;fill-opacity:1;stroke:none;stroke-width:4.4000001;stroke-miterlimit:4;stroke-dasharray:none;stroke-opacity:1" width="4.9" height="25.3" x="192.7" y="-1.8" ry="2.5" transform="rotate(45)"/><rect style="fill:#666;fill-opacity:1;stroke:none;stroke-width:3.38632536;stroke-miterlimit:4;stroke-dasharray:none;stroke-opacity:1" width="4.9" height="15" x="193.6" y="-99.4" ry="2.5" transform="rotate(75)"/><rect style="fill:#666;fill-opacity:1;stroke:none;stroke-width:3.91019177;stroke-miterlimit:4;stroke-dasharray:none;stroke-opacity:1" width="4.9" height="20" x="142" y="-196.4" ry="2.5" transform="rotate(105)"/><rect style="fill:#666;fill-opacity:1;stroke:none;stroke-width:4.4000001;stroke-miterlimit:4;stroke-dasharray:none;stroke-opacity:1" width="4.9" height="25.3" x="110.7" y="-238.4" ry="2.5" transform="rotate(120)"/></g></svg>