<svg xmlns="http://www.w3.org/2000/svg" width="200mm" height="200mm" viewBox="0 0 200 200"><path d="m361 160-58 84h40zM309 329l58-85h-40z" style="fill:#25c2a0;fill-opacity:1;stroke:none;stroke-width:.26458332px;stroke-linecap:butt;stroke-linejoin:miter;stroke-opacity:1" transform="translate(55 -153)"/><g><path style="fill:#666;fill-opacity:1;stroke:none;stroke-width:3.99277687;stroke-miterlimit:4;stroke-dasharray:none;stroke-opacity:1" d="M194 83h-35l-18-31 18-30h35l17 30zM311 83h-35l-18-31 18-30h35l17 30zM252 48h-35l-17-30 17-31h35l18 31z" transform="translate(-134 14)"/><path style="fill:#666;fill-opacity:1;stroke:none;stroke-width:3.99277687;stroke-miterlimit:4;stroke-dasharray:none;stroke-opacity:1" d="M-276-89h-35l-17-30 17-31h35l18 31zM-159-89h-35l-17-30 17-31h35l18 31zM-217-124h-35l-18-30 18-30h35l17 30z" transform="rotate(180 -67 7)"/><path style="fill:#25c2a0;fill-opacity:1;stroke:none;stroke-width:3.99277687;stroke-miterlimit:4;stroke-dasharray:none;stroke-opacity:1" d="M252 116h-35l-17-30 17-31h35l18 31z" transform="translate(-134 14)"/><path style="fill:#666;fill-opacity:1;stroke:none;stroke-width:.086152px;stroke-linecap:butt;stroke-linejoin:miter;stroke-opacity:1" d="m244 63-22 24h15zm-13 24-7 24 22-24Z" transform="translate(-134 14)"/></g></svg>